<svg id="svg" xmlns="http://www.w3.org/2000/svg" xmlns:xlink="http://www.w3.org/1999/xlink" width="400" height="104.94534096824572" viewBox="0, 0, 400,104.94534096824572" version="1.1"><g id="svgg"><path id="path0" d="M47.667 17.770 C 27.649 20.461,14.061 39.239,17.831 59.000 C 21.577 78.628,41.215 91.122,60.797 86.335 C 64.672 85.387,69.508 83.165,69.496 82.336 C 69.493 82.127,65.492 76.937,64.761 76.193 C 64.578 76.007,64.310 76.082,63.146 76.643 C 57.237 79.489,49.173 79.630,42.727 76.999 C 25.523 69.978,20.987 46.767,34.242 33.583 C 47.593 20.305,69.880 25.162,76.900 42.879 C 77.449 44.265,77.376 44.415,76.370 43.965 C 73.798 42.812,69.853 43.665,68.001 45.774 C 65.499 48.624,65.874 52.418,69.088 56.764 C 70.776 59.047,81.739 71.500,82.061 71.500 C 82.333 71.500,91.932 60.669,94.356 57.628 C 97.909 53.169,98.659 49.807,96.795 46.703 C 95.183 44.020,91.322 42.720,88.250 43.827 C 86.446 44.477,86.607 44.550,86.176 42.889 C 81.893 26.396,65.079 15.428,47.667 17.770 M227.611 29.111 C 227.550 29.172,227.500 38.472,227.500 49.778 L 227.500 70.333 231.149 70.333 C 234.322 70.333,234.811 70.299,234.899 70.070 C 235.109 69.522,235.012 29.412,234.800 29.200 C 234.584 28.984,227.822 28.900,227.611 29.111 M133.417 43.756 C 126.980 45.190,123.619 50.307,123.873 58.287 C 124.179 67.943,131.986 73.221,142.083 70.600 C 143.798 70.155,147.098 68.636,147.383 68.160 C 147.516 67.940,145.272 63.898,144.674 63.279 C 144.601 63.203,144.101 63.361,143.562 63.631 C 137.905 66.459,132.049 64.527,131.794 59.748 L 131.750 58.917 140.298 58.833 C 149.576 58.743,149.158 58.790,149.164 57.833 C 149.223 47.670,142.565 41.718,133.417 43.756 M162.750 43.746 C 154.980 45.449,150.650 52.794,152.509 61.120 C 154.175 68.582,161.832 72.826,169.750 70.676 C 171.272 70.263,173.807 69.097,173.940 68.749 C 174.012 68.561,171.635 64.312,171.157 63.773 C 171.086 63.694,170.603 63.830,170.082 64.077 C 163.698 67.097,157.981 61.651,160.165 54.631 C 161.619 49.958,166.954 48.249,171.190 51.099 C 171.654 51.411,172.101 51.667,172.183 51.667 C 172.267 51.667,172.333 50.197,172.333 48.336 L 172.333 45.006 171.501 44.584 C 169.518 43.579,165.338 43.178,162.750 43.746 M213.667 43.728 C 200.101 46.886,199.128 66.567,212.333 70.693 C 215.779 71.769,223.076 70.683,224.739 68.846 C 225.027 68.527,222.254 63.724,221.814 63.779 C 221.687 63.795,221.110 64.007,220.531 64.249 C 215.244 66.459,210.667 63.277,210.667 57.391 C 210.667 50.805,216.934 47.528,222.365 51.274 C 223.300 51.919,223.333 51.821,223.333 48.399 C 223.333 44.730,223.367 44.796,221.147 44.073 C 219.479 43.530,215.339 43.339,213.667 43.728 M247.820 43.835 C 240.206 45.708,236.327 54.712,239.434 63.302 C 242.107 70.694,251.802 73.496,260.156 69.292 C 262.499 68.113,262.461 68.291,260.917 65.734 C 259.191 62.878,259.410 63.048,258.234 63.643 C 252.576 66.502,246.771 64.522,246.462 59.628 L 246.417 58.917 254.964 58.833 C 264.494 58.740,263.826 58.838,263.831 57.535 C 263.857 50.305,260.315 44.932,254.745 43.752 C 253.060 43.395,249.431 43.439,247.820 43.835 M117.306 43.977 C 116.058 44.388,115.434 44.794,114.347 45.899 C 113.258 47.006,113.167 46.974,113.167 45.490 L 113.167 44.333 109.518 44.333 C 106.344 44.333,105.856 44.368,105.768 44.597 C 105.636 44.941,105.636 69.725,105.768 70.070 C 105.856 70.299,106.343 70.333,109.502 70.333 L 113.135 70.333 113.212 62.958 C 113.303 54.202,113.430 53.397,115.000 51.609 C 116.188 50.256,119.029 49.802,120.963 50.657 C 122.085 51.152,122.003 51.297,122.443 48.036 C 122.966 44.156,122.970 44.225,122.208 43.989 C 121.064 43.634,118.367 43.628,117.306 43.977 M362.269 44.179 C 362.138 44.493,361.270 46.587,360.341 48.833 C 359.412 51.079,357.820 54.926,356.803 57.381 C 355.751 59.922,354.875 61.820,354.771 61.785 C 354.669 61.751,353.145 58.429,351.383 54.403 C 349.621 50.377,347.990 46.690,347.758 46.208 L 347.337 45.333 345.002 45.333 C 343.297 45.333,342.667 45.387,342.667 45.533 C 342.667 45.715,345.396 51.702,352.188 66.417 C 353.542 69.350,354.741 71.750,354.854 71.750 C 354.967 71.750,356.704 67.777,358.734 62.875 C 360.755 57.994,362.490 54.000,362.588 54.000 C 362.686 54.000,364.401 57.925,366.398 62.723 C 370.367 72.255,370.246 71.988,370.482 71.749 C 370.572 71.658,372.647 67.271,375.094 62.000 C 381.931 47.275,382.667 45.671,382.667 45.496 C 382.667 45.240,378.081 45.284,377.873 45.542 C 377.781 45.656,376.768 47.887,375.622 50.500 C 371.277 60.408,370.617 61.845,370.436 61.785 C 370.334 61.751,368.580 57.720,366.540 52.826 C 362.475 43.079,362.612 43.357,362.269 44.179 M174.500 44.516 C 174.500 44.616,176.951 49.547,179.946 55.474 L 185.392 66.250 182.675 71.750 C 178.475 80.253,177.804 81.683,177.900 81.934 C 177.999 82.191,185.054 82.286,185.448 82.036 C 185.557 81.967,186.354 80.449,187.219 78.663 C 188.084 76.878,190.251 72.454,192.033 68.833 C 193.815 65.212,196.429 59.887,197.841 57.000 C 199.253 54.112,201.207 50.137,202.184 48.167 C 203.161 46.196,203.927 44.527,203.887 44.458 C 203.847 44.390,202.100 44.333,200.005 44.333 L 196.197 44.333 195.140 46.542 C 191.465 54.224,189.714 57.749,189.575 57.745 C 189.488 57.743,188.066 54.818,186.415 51.245 C 184.765 47.673,183.354 44.656,183.280 44.542 C 183.101 44.262,174.500 44.237,174.500 44.516 M296.377 44.913 C 294.970 45.309,293.832 45.974,292.704 47.057 C 291.465 48.246,291.340 48.191,291.336 46.458 L 291.333 45.333 289.250 45.333 L 287.167 45.333 287.167 57.833 L 287.167 70.333 289.250 70.333 L 291.333 70.333 291.338 64.375 C 291.346 54.224,291.703 51.975,293.603 50.074 C 295.396 48.281,299.529 48.176,301.359 49.877 C 302.770 51.188,302.864 51.889,302.955 61.792 L 303.033 70.333 305.109 70.333 L 307.185 70.333 307.126 61.042 C 307.063 50.941,307.071 51.035,306.071 48.845 C 304.580 45.581,300.245 43.823,296.377 44.913 M324.083 44.903 C 311.865 47.718,309.799 64.140,320.959 69.741 C 328.621 73.586,338.050 68.956,339.759 60.509 C 341.623 51.292,333.116 42.822,324.083 44.903 M138.435 48.913 C 139.968 49.368,141.318 50.971,141.646 52.725 C 141.857 53.859,141.968 53.833,136.833 53.833 C 131.612 53.833,131.775 53.875,132.072 52.610 C 132.776 49.602,135.475 48.034,138.435 48.913 M253.403 49.009 C 254.948 49.587,256.500 51.803,256.500 53.431 C 256.500 53.808,255.954 53.846,251.250 53.797 L 246.750 53.750 246.758 52.997 C 246.790 50.014,250.361 47.871,253.403 49.009 M329.049 48.915 C 337.017 50.990,338.092 62.730,330.637 66.248 C 324.593 69.100,317.964 64.742,317.952 57.910 C 317.942 51.786,323.324 47.424,329.049 48.915 " stroke="none" fill="#8cc43d" fill-rule="evenodd"></path></g></svg>
